<?xml version="1.0" encoding="UTF-8" standalone="no"?><svg xmlns="http://www.w3.org/2000/svg" xmlns:xlink="http://www.w3.org/1999/xlink" contentScriptType="application/ecmascript" contentStyleType="text/css" height="574px" preserveAspectRatio="none" style="width:816px;height:574px;background:#FFFFFF;" version="1.1" viewBox="0 0 816 574" width="816px" zoomAndPan="magnify"><defs><filter height="300%" id="f1wyx3rcqgodie" width="300%" x="-1" y="-1"><feGaussianBlur result="blurOut" stdDeviation="2.0"/><feColorMatrix in="blurOut" result="blurOut2" type="matrix" values="0 0 0 0 0 0 0 0 0 0 0 0 0 0 0 0 0 0 .4 0"/><feOffset dx="4.0" dy="4.0" in="blurOut2" result="blurOut3"/><feBlend in="SourceGraphic" in2="blurOut3" mode="normal"/></filter></defs><g><!--MD5=[ebfcf78b6f2b39760914d2ef350419dc]
class HTRAXToken--><rect codeLine="11" fill="#FEFECE" filter="url(#f1wyx3rcqgodie)" height="444.9453" id="HTRAXToken" style="stroke:#A80036;stroke-width:1.5;" width="198" x="277" y="7"/><ellipse cx="333.75" cy="23" fill="#ADD1B2" rx="11" ry="11" style="stroke:#A80036;stroke-width:1.0;"/><path d="M336.0938,18.6719 C335.1563,18.2344 334.5625,18.0938 333.6875,18.0938 C331.0625,18.0938 329.0625,20.1719 329.0625,22.8906 L329.0625,24.0156 C329.0625,26.5938 331.1719,28.4844 334.0625,28.4844 C335.2813,28.4844 336.4375,28.1875 337.1875,27.6406 C337.7656,27.2344 338.0938,26.7813 338.0938,26.3906 C338.0938,25.9375 337.7031,25.5469 337.2344,25.5469 C337.0156,25.5469 336.8125,25.625 336.625,25.8125 C336.1719,26.2969 336.1719,26.2969 335.9844,26.3906 C335.5625,26.6563 334.875,26.7813 334.1094,26.7813 C332.0625,26.7813 330.7656,25.6875 330.7656,23.9844 L330.7656,22.8906 C330.7656,21.1094 332.0156,19.7969 333.75,19.7969 C334.3281,19.7969 334.9375,19.9531 335.4063,20.2031 C335.8906,20.4844 336.0625,20.7031 336.1563,21.1094 C336.2188,21.5156 336.25,21.6406 336.3906,21.7656 C336.5313,21.9063 336.7656,22.0156 336.9844,22.0156 C337.25,22.0156 337.5156,21.875 337.6875,21.6563 C337.7969,21.5 337.8281,21.3125 337.8281,20.8906 L337.8281,19.4688 C337.8281,19.0313 337.8125,18.9063 337.7188,18.75 C337.5625,18.4844 337.2813,18.3438 336.9844,18.3438 C336.6875,18.3438 336.4844,18.4375 336.2656,18.75 L336.0938,18.6719 Z " fill="#000000"/><text fill="#000000" font-family="sans-serif" font-size="12" lengthAdjust="spacing" textLength="76" x="354.25" y="27.1543">HTRAXToken</text><line style="stroke:#A80036;stroke-width:1.5;" x1="278" x2="474" y1="39" y2="39"/><text fill="#000000" font-family="sans-serif" font-size="11" font-style="italic" lengthAdjust="spacing" textLength="37" x="297" y="53.2104">ERC20</text><text fill="#000000" font-family="sans-serif" font-size="11" font-style="italic" lengthAdjust="spacing" textLength="89" x="297" y="66.0151">ERC20Snapshot</text><text fill="#000000" font-family="sans-serif" font-size="11" font-style="italic" lengthAdjust="spacing" textLength="49" x="297" y="78.8198">Ownable</text><text fill="#000000" font-family="sans-serif" font-size="11" font-style="italic" lengthAdjust="spacing" textLength="51" x="297" y="91.6245">Pausable</text><text fill="#000000" font-family="sans-serif" font-size="11" font-style="italic" lengthAdjust="spacing" textLength="80" x="297" y="104.4292">AccessControl</text><text fill="#000000" font-family="sans-serif" font-size="11" font-style="italic" lengthAdjust="spacing" textLength="97" x="297" y="117.2339">HTRAXTokenSale</text><text fill="#000000" font-family="sans-serif" font-size="11" lengthAdjust="spacing" textLength="0" x="301" y="130.0386"/><text fill="#000000" font-family="sans-serif" font-size="11" lengthAdjust="spacing" textLength="0" x="301" y="142.8433"/><ellipse cx="288" cy="152.4375" rx="3" ry="3" style="stroke:#038048;stroke-width:1.0;fill:none;"/><a href="bytes32" target="_top" title="bytes32" xlink:actuate="onRequest" xlink:href="bytes32" xlink:show="new" xlink:title="bytes32" xlink:type="simple"><text fill="#0000FF" font-family="sans-serif" font-size="11" lengthAdjust="spacing" text-decoration="underline" textLength="46" x="297" y="155.6479">bytes32</text></a><text fill="#000000" font-family="sans-serif" font-size="11" lengthAdjust="spacing" text-decoration="underline" textLength="76" x="347" y="155.6479">MINTER_ROLE</text><ellipse cx="288" cy="165.2422" rx="3" ry="3" style="stroke:#038048;stroke-width:1.0;fill:none;"/><a href="bytes32" target="_top" title="bytes32" xlink:actuate="onRequest" xlink:href="bytes32" xlink:show="new" xlink:title="bytes32" xlink:type="simple"><text fill="#0000FF" font-family="sans-serif" font-size="11" lengthAdjust="spacing" text-decoration="underline" textLength="46" x="297" y="168.4526">bytes32</text></a><text fill="#000000" font-family="sans-serif" font-size="11" lengthAdjust="spacing" text-decoration="underline" textLength="80" x="347" y="168.4526">BURNER_ROLE</text><ellipse cx="288" cy="178.0469" rx="3" ry="3" style="stroke:#038048;stroke-width:1.0;fill:none;"/><a href="bytes32" target="_top" title="bytes32" xlink:actuate="onRequest" xlink:href="bytes32" xlink:show="new" xlink:title="bytes32" xlink:type="simple"><text fill="#0000FF" font-family="sans-serif" font-size="11" lengthAdjust="spacing" text-decoration="underline" textLength="46" x="297" y="181.2573">bytes32</text></a><text fill="#000000" font-family="sans-serif" font-size="11" lengthAdjust="spacing" text-decoration="underline" textLength="96" x="347" y="181.2573">EXECUTOR_ROLE</text><ellipse cx="288" cy="190.8516" rx="3" ry="3" style="stroke:#038048;stroke-width:1.0;fill:none;"/><a href="bytes32" target="_top" title="bytes32" xlink:actuate="onRequest" xlink:href="bytes32" xlink:show="new" xlink:title="bytes32" xlink:type="simple"><text fill="#0000FF" font-family="sans-serif" font-size="11" lengthAdjust="spacing" text-decoration="underline" textLength="46" x="297" y="194.062">bytes32</text></a><text fill="#000000" font-family="sans-serif" font-size="11" lengthAdjust="spacing" text-decoration="underline" textLength="122" x="347" y="194.062">RISK_MANAGER_ROLE</text><rect fill="none" height="6" style="stroke:#C82930;stroke-width:1.0;" width="6" x="285" y="200.6563"/><a href="uint256" target="_top" title="uint256" xlink:actuate="onRequest" xlink:href="uint256" xlink:show="new" xlink:title="uint256" xlink:type="simple"><text fill="#0000FF" font-family="sans-serif" font-size="11" lengthAdjust="spacing" text-decoration="underline" textLength="42" x="297" y="206.8667">uint256</text></a><text fill="#000000" font-family="sans-serif" font-size="11" lengthAdjust="spacing" textLength="26" x="343" y="206.8667">_cap</text><rect fill="none" height="6" style="stroke:#C82930;stroke-width:1.0;" width="6" x="285" y="213.4609"/><a href="string" target="_top" title="string" xlink:actuate="onRequest" xlink:href="string" xlink:show="new" xlink:title="string" xlink:type="simple"><text fill="#0000FF" font-family="sans-serif" font-size="11" lengthAdjust="spacing" text-decoration="underline" textLength="31" x="297" y="219.6714">string</text></a><text fill="#000000" font-family="sans-serif" font-size="11" lengthAdjust="spacing" textLength="47" x="332" y="219.6714">_symbol</text><rect fill="none" height="6" style="stroke:#C82930;stroke-width:1.0;" width="6" x="285" y="226.2656"/><a href="string" target="_top" title="string" xlink:actuate="onRequest" xlink:href="string" xlink:show="new" xlink:title="string" xlink:type="simple"><text fill="#0000FF" font-family="sans-serif" font-size="11" lengthAdjust="spacing" text-decoration="underline" textLength="31" x="297" y="232.4761">string</text></a><text fill="#000000" font-family="sans-serif" font-size="11" lengthAdjust="spacing" textLength="39" x="332" y="232.4761">_name</text><ellipse cx="288" cy="242.0703" rx="3" ry="3" style="stroke:#038048;stroke-width:1.0;fill:none;"/><a href="mapping" target="_top" title="mapping" xlink:actuate="onRequest" xlink:href="mapping" xlink:show="new" xlink:title="mapping" xlink:type="simple"><text fill="#0000FF" font-family="sans-serif" font-size="11" lengthAdjust="spacing" text-decoration="underline" textLength="87" x="297" y="245.2808">address=&gt;bool</text></a><text fill="#000000" font-family="sans-serif" font-size="11" lengthAdjust="spacing" textLength="73" x="392" y="245.2808">isBlackListed</text><line style="stroke:#A80036;stroke-width:1.5;" x1="278" x2="474" y1="251.875" y2="251.875"/><ellipse cx="288" cy="262.875" fill="#84BE84" rx="3" ry="3" style="stroke:#038048;stroke-width:1.0;"/><text fill="#000000" font-family="sans-serif" font-size="11" font-weight="bold" lengthAdjust="spacing" textLength="105" x="297" y="266.0854">__constructor__</text><text fill="#000000" font-family="sans-serif" font-size="11" lengthAdjust="spacing" textLength="8" x="402" y="266.0854">()</text><ellipse cx="288" cy="275.6797" fill="#84BE84" rx="3" ry="3" style="stroke:#038048;stroke-width:1.0;"/><text fill="#000000" font-family="sans-serif" font-size="11" lengthAdjust="spacing" textLength="33" x="297" y="278.8901">mint()</text><ellipse cx="288" cy="288.4844" fill="#84BE84" rx="3" ry="3" style="stroke:#038048;stroke-width:1.0;"/><text fill="#000000" font-family="sans-serif" font-size="11" lengthAdjust="spacing" textLength="39" x="297" y="291.6948">&#128269;cap()</text><ellipse cx="288" cy="301.2891" fill="#84BE84" rx="3" ry="3" style="stroke:#038048;stroke-width:1.0;"/><text fill="#000000" font-family="sans-serif" font-size="11" lengthAdjust="spacing" textLength="33" x="297" y="304.4995">burn()</text><ellipse cx="288" cy="314.0938" fill="#84BE84" rx="3" ry="3" style="stroke:#038048;stroke-width:1.0;"/><text fill="#000000" font-family="sans-serif" font-size="11" lengthAdjust="spacing" textLength="61" x="297" y="317.3042">burnFrom()</text><ellipse cx="288" cy="326.8984" fill="#84BE84" rx="3" ry="3" style="stroke:#038048;stroke-width:1.0;"/><text fill="#000000" font-family="sans-serif" font-size="11" lengthAdjust="spacing" textLength="59" x="297" y="330.1089">snapshot()</text><ellipse cx="288" cy="339.7031" fill="#84BE84" rx="3" ry="3" style="stroke:#038048;stroke-width:1.0;"/><text fill="#000000" font-family="sans-serif" font-size="11" lengthAdjust="spacing" textLength="43" x="297" y="342.9136">pause()</text><ellipse cx="288" cy="352.5078" fill="#84BE84" rx="3" ry="3" style="stroke:#038048;stroke-width:1.0;"/><text fill="#000000" font-family="sans-serif" font-size="11" lengthAdjust="spacing" textLength="57" x="297" y="355.7183">unpause()</text><ellipse cx="288" cy="365.3125" fill="#84BE84" rx="3" ry="3" style="stroke:#038048;stroke-width:1.0;"/><text fill="#000000" font-family="sans-serif" font-size="11" lengthAdjust="spacing" textLength="52" x="297" y="368.5229">transfer()</text><ellipse cx="288" cy="378.1172" fill="#84BE84" rx="3" ry="3" style="stroke:#038048;stroke-width:1.0;"/><text fill="#000000" font-family="sans-serif" font-size="11" lengthAdjust="spacing" textLength="80" x="297" y="381.3276">transferFrom()</text><ellipse cx="288" cy="390.9219" fill="#84BE84" rx="3" ry="3" style="stroke:#038048;stroke-width:1.0;"/><text fill="#000000" font-family="sans-serif" font-size="11" lengthAdjust="spacing" textLength="78" x="297" y="394.1323">addBlackList()</text><ellipse cx="288" cy="403.7266" fill="#84BE84" rx="3" ry="3" style="stroke:#038048;stroke-width:1.0;"/><text fill="#000000" font-family="sans-serif" font-size="11" lengthAdjust="spacing" textLength="102" x="297" y="406.937">removeBlackList()</text><ellipse cx="288" cy="416.5313" fill="#84BE84" rx="3" ry="3" style="stroke:#038048;stroke-width:1.0;"/><text fill="#000000" font-family="sans-serif" font-size="11" lengthAdjust="spacing" textLength="133" x="297" y="419.7417">transferLockedTokens()</text><ellipse cx="288" cy="429.3359" fill="#84BE84" rx="3" ry="3" style="stroke:#038048;stroke-width:1.0;"/><text fill="#000000" font-family="sans-serif" font-size="11" lengthAdjust="spacing" textLength="157" x="297" y="432.5464">transferDiscountedTokens()</text><polygon fill="#FFFF44" points="288,437.1406,292,441.1406,288,445.1406,284,441.1406" style="stroke:#B38D22;stroke-width:1.0;"/><text fill="#000000" font-family="sans-serif" font-size="11" lengthAdjust="spacing" textLength="134" x="297" y="445.3511">_beforeTokenTransfer()</text><!--MD5=[f60c979bdad583d77784642832d1ba87]
class ERC20--><rect fill="#FEFECE" filter="url(#f1wyx3rcqgodie)" height="48" id="ERC20" style="stroke:#A80036;stroke-width:1.5;" width="70" x="7" y="512"/><ellipse cx="22" cy="528" fill="#ADD1B2" rx="11" ry="11" style="stroke:#A80036;stroke-width:1.0;"/><path d="M24.3438,523.6719 C23.4063,523.2344 22.8125,523.0938 21.9375,523.0938 C19.3125,523.0938 17.3125,525.1719 17.3125,527.8906 L17.3125,529.0156 C17.3125,531.5938 19.4219,533.4844 22.3125,533.4844 C23.5313,533.4844 24.6875,533.1875 25.4375,532.6406 C26.0156,532.2344 26.3438,531.7813 26.3438,531.3906 C26.3438,530.9375 25.9531,530.5469 25.4844,530.5469 C25.2656,530.5469 25.0625,530.625 24.875,530.8125 C24.4219,531.2969 24.4219,531.2969 24.2344,531.3906 C23.8125,531.6563 23.125,531.7813 22.3594,531.7813 C20.3125,531.7813 19.0156,530.6875 19.0156,528.9844 L19.0156,527.8906 C19.0156,526.1094 20.2656,524.7969 22,524.7969 C22.5781,524.7969 23.1875,524.9531 23.6563,525.2031 C24.1406,525.4844 24.3125,525.7031 24.4063,526.1094 C24.4688,526.5156 24.5,526.6406 24.6406,526.7656 C24.7813,526.9063 25.0156,527.0156 25.2344,527.0156 C25.5,527.0156 25.7656,526.875 25.9375,526.6563 C26.0469,526.5 26.0781,526.3125 26.0781,525.8906 L26.0781,524.4688 C26.0781,524.0313 26.0625,523.9063 25.9688,523.75 C25.8125,523.4844 25.5313,523.3438 25.2344,523.3438 C24.9375,523.3438 24.7344,523.4375 24.5156,523.75 L24.3438,523.6719 Z " fill="#000000"/><text fill="#000000" font-family="sans-serif" font-size="12" lengthAdjust="spacing" textLength="38" x="36" y="532.1543">ERC20</text><line style="stroke:#A80036;stroke-width:1.5;" x1="8" x2="76" y1="544" y2="544"/><line style="stroke:#A80036;stroke-width:1.5;" x1="8" x2="76" y1="552" y2="552"/><!--MD5=[d49296c19a25ef25038512707ee67944]
class ERC20Snapshot--><rect fill="#FEFECE" filter="url(#f1wyx3rcqgodie)" height="48" id="ERC20Snapshot" style="stroke:#A80036;stroke-width:1.5;" width="126" x="112" y="512"/><ellipse cx="127" cy="528" fill="#ADD1B2" rx="11" ry="11" style="stroke:#A80036;stroke-width:1.0;"/><path d="M129.3438,523.6719 C128.4063,523.2344 127.8125,523.0938 126.9375,523.0938 C124.3125,523.0938 122.3125,525.1719 122.3125,527.8906 L122.3125,529.0156 C122.3125,531.5938 124.4219,533.4844 127.3125,533.4844 C128.5313,533.4844 129.6875,533.1875 130.4375,532.6406 C131.0156,532.2344 131.3438,531.7813 131.3438,531.3906 C131.3438,530.9375 130.9531,530.5469 130.4844,530.5469 C130.2656,530.5469 130.0625,530.625 129.875,530.8125 C129.4219,531.2969 129.4219,531.2969 129.2344,531.3906 C128.8125,531.6563 128.125,531.7813 127.3594,531.7813 C125.3125,531.7813 124.0156,530.6875 124.0156,528.9844 L124.0156,527.8906 C124.0156,526.1094 125.2656,524.7969 127,524.7969 C127.5781,524.7969 128.1875,524.9531 128.6563,525.2031 C129.1406,525.4844 129.3125,525.7031 129.4063,526.1094 C129.4688,526.5156 129.5,526.6406 129.6406,526.7656 C129.7813,526.9063 130.0156,527.0156 130.2344,527.0156 C130.5,527.0156 130.7656,526.875 130.9375,526.6563 C131.0469,526.5 131.0781,526.3125 131.0781,525.8906 L131.0781,524.4688 C131.0781,524.0313 131.0625,523.9063 130.9688,523.75 C130.8125,523.4844 130.5313,523.3438 130.2344,523.3438 C129.9375,523.3438 129.7344,523.4375 129.5156,523.75 L129.3438,523.6719 Z " fill="#000000"/><text fill="#000000" font-family="sans-serif" font-size="12" lengthAdjust="spacing" textLength="94" x="141" y="532.1543">ERC20Snapshot</text><line style="stroke:#A80036;stroke-width:1.5;" x1="113" x2="237" y1="544" y2="544"/><line style="stroke:#A80036;stroke-width:1.5;" x1="113" x2="237" y1="552" y2="552"/><!--MD5=[e8b38f76951d75a61b4cdf53a76e6409]
class Ownable--><rect fill="#FEFECE" filter="url(#f1wyx3rcqgodie)" height="48" id="Ownable" style="stroke:#A80036;stroke-width:1.5;" width="85" x="273.5" y="512"/><ellipse cx="288.5" cy="528" fill="#ADD1B2" rx="11" ry="11" style="stroke:#A80036;stroke-width:1.0;"/><path d="M290.8438,523.6719 C289.9063,523.2344 289.3125,523.0938 288.4375,523.0938 C285.8125,523.0938 283.8125,525.1719 283.8125,527.8906 L283.8125,529.0156 C283.8125,531.5938 285.9219,533.4844 288.8125,533.4844 C290.0313,533.4844 291.1875,533.1875 291.9375,532.6406 C292.5156,532.2344 292.8438,531.7813 292.8438,531.3906 C292.8438,530.9375 292.4531,530.5469 291.9844,530.5469 C291.7656,530.5469 291.5625,530.625 291.375,530.8125 C290.9219,531.2969 290.9219,531.2969 290.7344,531.3906 C290.3125,531.6563 289.625,531.7813 288.8594,531.7813 C286.8125,531.7813 285.5156,530.6875 285.5156,528.9844 L285.5156,527.8906 C285.5156,526.1094 286.7656,524.7969 288.5,524.7969 C289.0781,524.7969 289.6875,524.9531 290.1563,525.2031 C290.6406,525.4844 290.8125,525.7031 290.9063,526.1094 C290.9688,526.5156 291,526.6406 291.1406,526.7656 C291.2813,526.9063 291.5156,527.0156 291.7344,527.0156 C292,527.0156 292.2656,526.875 292.4375,526.6563 C292.5469,526.5 292.5781,526.3125 292.5781,525.8906 L292.5781,524.4688 C292.5781,524.0313 292.5625,523.9063 292.4688,523.75 C292.3125,523.4844 292.0313,523.3438 291.7344,523.3438 C291.4375,523.3438 291.2344,523.4375 291.0156,523.75 L290.8438,523.6719 Z " fill="#000000"/><text fill="#000000" font-family="sans-serif" font-size="12" lengthAdjust="spacing" textLength="53" x="302.5" y="532.1543">Ownable</text><line style="stroke:#A80036;stroke-width:1.5;" x1="274.5" x2="357.5" y1="544" y2="544"/><line style="stroke:#A80036;stroke-width:1.5;" x1="274.5" x2="357.5" y1="552" y2="552"/><!--MD5=[ae2d50f48df0b91d6e6d8bb9570007bd]
class Pausable--><rect fill="#FEFECE" filter="url(#f1wyx3rcqgodie)" height="48" id="Pausable" style="stroke:#A80036;stroke-width:1.5;" width="85" x="393.5" y="512"/><ellipse cx="408.5" cy="528" fill="#ADD1B2" rx="11" ry="11" style="stroke:#A80036;stroke-width:1.0;"/><path d="M410.8438,523.6719 C409.9063,523.2344 409.3125,523.0938 408.4375,523.0938 C405.8125,523.0938 403.8125,525.1719 403.8125,527.8906 L403.8125,529.0156 C403.8125,531.5938 405.9219,533.4844 408.8125,533.4844 C410.0313,533.4844 411.1875,533.1875 411.9375,532.6406 C412.5156,532.2344 412.8438,531.7813 412.8438,531.3906 C412.8438,530.9375 412.4531,530.5469 411.9844,530.5469 C411.7656,530.5469 411.5625,530.625 411.375,530.8125 C410.9219,531.2969 410.9219,531.2969 410.7344,531.3906 C410.3125,531.6563 409.625,531.7813 408.8594,531.7813 C406.8125,531.7813 405.5156,530.6875 405.5156,528.9844 L405.5156,527.8906 C405.5156,526.1094 406.7656,524.7969 408.5,524.7969 C409.0781,524.7969 409.6875,524.9531 410.1563,525.2031 C410.6406,525.4844 410.8125,525.7031 410.9063,526.1094 C410.9688,526.5156 411,526.6406 411.1406,526.7656 C411.2813,526.9063 411.5156,527.0156 411.7344,527.0156 C412,527.0156 412.2656,526.875 412.4375,526.6563 C412.5469,526.5 412.5781,526.3125 412.5781,525.8906 L412.5781,524.4688 C412.5781,524.0313 412.5625,523.9063 412.4688,523.75 C412.3125,523.4844 412.0313,523.3438 411.7344,523.3438 C411.4375,523.3438 411.2344,523.4375 411.0156,523.75 L410.8438,523.6719 Z " fill="#000000"/><text fill="#000000" font-family="sans-serif" font-size="12" lengthAdjust="spacing" textLength="53" x="422.5" y="532.1543">Pausable</text><line style="stroke:#A80036;stroke-width:1.5;" x1="394.5" x2="477.5" y1="544" y2="544"/><line style="stroke:#A80036;stroke-width:1.5;" x1="394.5" x2="477.5" y1="552" y2="552"/><!--MD5=[ee60552bc4698d86a6bc3ed4a603a080]
class AccessControl--><rect fill="#FEFECE" filter="url(#f1wyx3rcqgodie)" height="48" id="AccessControl" style="stroke:#A80036;stroke-width:1.5;" width="119" x="513.5" y="512"/><ellipse cx="528.5" cy="528" fill="#ADD1B2" rx="11" ry="11" style="stroke:#A80036;stroke-width:1.0;"/><path d="M530.8438,523.6719 C529.9063,523.2344 529.3125,523.0938 528.4375,523.0938 C525.8125,523.0938 523.8125,525.1719 523.8125,527.8906 L523.8125,529.0156 C523.8125,531.5938 525.9219,533.4844 528.8125,533.4844 C530.0313,533.4844 531.1875,533.1875 531.9375,532.6406 C532.5156,532.2344 532.8438,531.7813 532.8438,531.3906 C532.8438,530.9375 532.4531,530.5469 531.9844,530.5469 C531.7656,530.5469 531.5625,530.625 531.375,530.8125 C530.9219,531.2969 530.9219,531.2969 530.7344,531.3906 C530.3125,531.6563 529.625,531.7813 528.8594,531.7813 C526.8125,531.7813 525.5156,530.6875 525.5156,528.9844 L525.5156,527.8906 C525.5156,526.1094 526.7656,524.7969 528.5,524.7969 C529.0781,524.7969 529.6875,524.9531 530.1563,525.2031 C530.6406,525.4844 530.8125,525.7031 530.9063,526.1094 C530.9688,526.5156 531,526.6406 531.1406,526.7656 C531.2813,526.9063 531.5156,527.0156 531.7344,527.0156 C532,527.0156 532.2656,526.875 532.4375,526.6563 C532.5469,526.5 532.5781,526.3125 532.5781,525.8906 L532.5781,524.4688 C532.5781,524.0313 532.5625,523.9063 532.4688,523.75 C532.3125,523.4844 532.0313,523.3438 531.7344,523.3438 C531.4375,523.3438 531.2344,523.4375 531.0156,523.75 L530.8438,523.6719 Z " fill="#000000"/><text fill="#000000" font-family="sans-serif" font-size="12" lengthAdjust="spacing" textLength="87" x="542.5" y="532.1543">AccessControl</text><line style="stroke:#A80036;stroke-width:1.5;" x1="514.5" x2="631.5" y1="544" y2="544"/><line style="stroke:#A80036;stroke-width:1.5;" x1="514.5" x2="631.5" y1="552" y2="552"/><!--MD5=[f6b228d62928a54010e23d05fae7315c]
class HTRAXTokenSale--><rect fill="#FEFECE" filter="url(#f1wyx3rcqgodie)" height="48" id="HTRAXTokenSale" style="stroke:#A80036;stroke-width:1.5;" width="134" x="668" y="512"/><ellipse cx="683" cy="528" fill="#ADD1B2" rx="11" ry="11" style="stroke:#A80036;stroke-width:1.0;"/><path d="M685.3438,523.6719 C684.4063,523.2344 683.8125,523.0938 682.9375,523.0938 C680.3125,523.0938 678.3125,525.1719 678.3125,527.8906 L678.3125,529.0156 C678.3125,531.5938 680.4219,533.4844 683.3125,533.4844 C684.5313,533.4844 685.6875,533.1875 686.4375,532.6406 C687.0156,532.2344 687.3438,531.7813 687.3438,531.3906 C687.3438,530.9375 686.9531,530.5469 686.4844,530.5469 C686.2656,530.5469 686.0625,530.625 685.875,530.8125 C685.4219,531.2969 685.4219,531.2969 685.2344,531.3906 C684.8125,531.6563 684.125,531.7813 683.3594,531.7813 C681.3125,531.7813 680.0156,530.6875 680.0156,528.9844 L680.0156,527.8906 C680.0156,526.1094 681.2656,524.7969 683,524.7969 C683.5781,524.7969 684.1875,524.9531 684.6563,525.2031 C685.1406,525.4844 685.3125,525.7031 685.4063,526.1094 C685.4688,526.5156 685.5,526.6406 685.6406,526.7656 C685.7813,526.9063 686.0156,527.0156 686.2344,527.0156 C686.5,527.0156 686.7656,526.875 686.9375,526.6563 C687.0469,526.5 687.0781,526.3125 687.0781,525.8906 L687.0781,524.4688 C687.0781,524.0313 687.0625,523.9063 686.9688,523.75 C686.8125,523.4844 686.5313,523.3438 686.2344,523.3438 C685.9375,523.3438 685.7344,523.4375 685.5156,523.75 L685.3438,523.6719 Z " fill="#000000"/><text fill="#000000" font-family="sans-serif" font-size="12" lengthAdjust="spacing" textLength="102" x="697" y="532.1543">HTRAXTokenSale</text><line style="stroke:#A80036;stroke-width:1.5;" x1="669" x2="801" y1="544" y2="544"/><line style="stroke:#A80036;stroke-width:1.5;" x1="669" x2="801" y1="552" y2="552"/><!--MD5=[0d955a537653f6b1950c5d5e175ab4e8]
link HTRAXToken to ERC20--><path codeLine="51" d="M276.693,321.036 C211.734,380.257 130.327,454.475 82.4536,498.1194 " fill="none" id="HTRAXToken-to-ERC20" style="stroke:#B8860B;stroke-width:1.0;"/><polygon fill="none" points="87.0721,503.3813,67.5762,511.6827,77.64,493.0354,87.0721,503.3813" style="stroke:#B8860B;stroke-width:1.0;"/><!--MD5=[4d75c2e45bda5b3c696758da2e9b6e41]
link HTRAXToken to ERC20Snapshot--><path codeLine="52" d="M276.972,380.52 C248.989,422.912 220.854,465.535 201.247,495.2383 " fill="none" id="HTRAXToken-to-ERC20Snapshot" style="stroke:#B8860B;stroke-width:1.0;"/><polygon fill="none" points="207.078,499.1106,190.218,511.9457,195.394,491.3979,207.078,499.1106" style="stroke:#B8860B;stroke-width:1.0;"/><!--MD5=[c1455be1d0fdb8862734214803d7e8c8]
link HTRAXToken to Ownable--><path codeLine="53" d="M332.316,452.196 C329.449,466.7487 326.793,480.2238 324.494,491.8948 " fill="none" id="HTRAXToken-to-Ownable" style="stroke:#B8860B;stroke-width:1.0;"/><polygon fill="none" points="331.282,493.6543,320.547,511.9237,317.546,490.9477,331.282,493.6543" style="stroke:#B8860B;stroke-width:1.0;"/><!--MD5=[891d24b851b23695ba0d08a14e92817f]
link HTRAXToken to Pausable--><path codeLine="54" d="M419.684,452.196 C422.551,466.7487 425.207,480.2238 427.506,491.8948 " fill="none" id="HTRAXToken-to-Pausable" style="stroke:#B8860B;stroke-width:1.0;"/><polygon fill="none" points="434.454,490.9477,431.453,511.9237,420.718,493.6543,434.454,490.9477" style="stroke:#B8860B;stroke-width:1.0;"/><!--MD5=[614d2b6758fcaeef15958e0f90763a24]
link HTRAXToken to AccessControl--><path codeLine="55" d="M475.077,383.642 C501.643,424.705 528.153,465.6809 546.877,494.6222 " fill="none" id="HTRAXToken-to-AccessControl" style="stroke:#B8860B;stroke-width:1.0;"/><polygon fill="none" points="552.993,491.1883,557.979,511.7828,541.238,498.793,552.993,491.1883" style="stroke:#B8860B;stroke-width:1.0;"/><!--MD5=[aa8b00955d3ea3cfa9d884a2a2ae130b]
link HTRAXToken to HTRAXTokenSale--><path codeLine="56" d="M475.049,314.512 C546.367,375.004 639.05,453.616 692.293,498.7765 " fill="none" id="HTRAXToken-to-HTRAXTokenSale" style="stroke:#B8860B;stroke-width:1.0;"/><polygon fill="none" points="697.076,493.6543,707.8,511.9296,688.02,504.331,697.076,493.6543" style="stroke:#B8860B;stroke-width:1.0;"/><!--MD5=[3b5b211865e9bfb348130e3b76e8b363]
@startuml
' - - generated by: https://marketplace.visualstudio.com/items?itemName=tintinweb.solidity-visual-auditor
'
' - - for auto-render install: https://marketplace.visualstudio.com/items?itemName=jebbs.plantuml
' - - options - -

allowmixing

' - - classes - -


class HTRAXToken {
    ' - - inheritance - -
	{abstract}ERC20
	{abstract}ERC20Snapshot
	{abstract}Ownable
	{abstract}Pausable
	{abstract}AccessControl
	{abstract}HTRAXTokenSale

    ' - - usingFor - -

    ' - - vars - -
	+{static}[[bytes32]] MINTER_ROLE
	+{static}[[bytes32]] BURNER_ROLE
	+{static}[[bytes32]] EXECUTOR_ROLE
	+{static}[[bytes32]] RISK_MANAGER_ROLE
	-[[uint256]] _cap
	-[[string]] _symbol
	-[[string]] _name
	+[[mapping address=>bool ]] isBlackListed

    ' - - methods - -
	+**__constructor__**()
	+mint()
	+ðŸ”cap()
	+burn()
	+burnFrom()
	+snapshot()
	+pause()
	+unpause()
	+transfer()
	+transferFrom()
	+addBlackList()
	+removeBlackList()
	+transferLockedTokens()
	+transferDiscountedTokens()
	#_beforeTokenTransfer()

}
' - - inheritance / usingFor - -
HTRAXToken - -[#DarkGoldenRod]|> ERC20
HTRAXToken - -[#DarkGoldenRod]|> ERC20Snapshot
HTRAXToken - -[#DarkGoldenRod]|> Ownable
HTRAXToken - -[#DarkGoldenRod]|> Pausable
HTRAXToken - -[#DarkGoldenRod]|> AccessControl
HTRAXToken - -[#DarkGoldenRod]|> HTRAXTokenSale

' - - actors - -
@enduml

@startuml

allowmixing



class HTRAXToken {
	{abstract}ERC20
	{abstract}ERC20Snapshot
	{abstract}Ownable
	{abstract}Pausable
	{abstract}AccessControl
	{abstract}HTRAXTokenSale


	+{static}[[bytes32]] MINTER_ROLE
	+{static}[[bytes32]] BURNER_ROLE
	+{static}[[bytes32]] EXECUTOR_ROLE
	+{static}[[bytes32]] RISK_MANAGER_ROLE
	-[[uint256]] _cap
	-[[string]] _symbol
	-[[string]] _name
	+[[mapping address=>bool ]] isBlackListed

	+**__constructor__**()
	+mint()
	+ðŸ”cap()
	+burn()
	+burnFrom()
	+snapshot()
	+pause()
	+unpause()
	+transfer()
	+transferFrom()
	+addBlackList()
	+removeBlackList()
	+transferLockedTokens()
	+transferDiscountedTokens()
	#_beforeTokenTransfer()

}
HTRAXToken - -[#DarkGoldenRod]|> ERC20
HTRAXToken - -[#DarkGoldenRod]|> ERC20Snapshot
HTRAXToken - -[#DarkGoldenRod]|> Ownable
HTRAXToken - -[#DarkGoldenRod]|> Pausable
HTRAXToken - -[#DarkGoldenRod]|> AccessControl
HTRAXToken - -[#DarkGoldenRod]|> HTRAXTokenSale

@enduml

PlantUML version 1.2021.13beta5(Unknown compile time)
(GPL source distribution)
Java Runtime: Java(TM) SE Runtime Environment
JVM: Java HotSpot(TM) 64-Bit Server VM
Default Encoding: UTF-8
Language: en
Country: US
--></g></svg>