<?xml version="1.0" encoding="UTF-8" standalone="no"?><svg xmlns="http://www.w3.org/2000/svg" xmlns:xlink="http://www.w3.org/1999/xlink" contentScriptType="application/ecmascript" contentStyleType="text/css" height="497px" preserveAspectRatio="none" style="width:253px;height:497px;background:#FFFFFF;" version="1.1" viewBox="0 0 253 497" width="253px" zoomAndPan="magnify"><defs><filter height="300%" id="f1f6j7gva3ihzj" width="300%" x="-1" y="-1"><feGaussianBlur result="blurOut" stdDeviation="2.0"/><feColorMatrix in="blurOut" result="blurOut2" type="matrix" values="0 0 0 0 0 0 0 0 0 0 0 0 0 0 0 0 0 0 .4 0"/><feOffset dx="4.0" dy="4.0" in="blurOut2" result="blurOut3"/><feBlend in="SourceGraphic" in2="blurOut3" mode="normal"/></filter></defs><g><!--MD5=[f6b228d62928a54010e23d05fae7315c]
class HTRAXTokenSale--><rect codeLine="11" fill="#FEFECE" filter="url(#f1f6j7gva3ihzj)" height="368.1172" id="HTRAXTokenSale" style="stroke:#A80036;stroke-width:1.5;" width="230" x="9" y="7"/><ellipse cx="68.75" cy="23" fill="#ADD1B2" rx="11" ry="11" style="stroke:#A80036;stroke-width:1.0;"/><path d="M71.0938,18.6719 C70.1563,18.2344 69.5625,18.0938 68.6875,18.0938 C66.0625,18.0938 64.0625,20.1719 64.0625,22.8906 L64.0625,24.0156 C64.0625,26.5938 66.1719,28.4844 69.0625,28.4844 C70.2813,28.4844 71.4375,28.1875 72.1875,27.6406 C72.7656,27.2344 73.0938,26.7813 73.0938,26.3906 C73.0938,25.9375 72.7031,25.5469 72.2344,25.5469 C72.0156,25.5469 71.8125,25.625 71.625,25.8125 C71.1719,26.2969 71.1719,26.2969 70.9844,26.3906 C70.5625,26.6563 69.875,26.7813 69.1094,26.7813 C67.0625,26.7813 65.7656,25.6875 65.7656,23.9844 L65.7656,22.8906 C65.7656,21.1094 67.0156,19.7969 68.75,19.7969 C69.3281,19.7969 69.9375,19.9531 70.4063,20.2031 C70.8906,20.4844 71.0625,20.7031 71.1563,21.1094 C71.2188,21.5156 71.25,21.6406 71.3906,21.7656 C71.5313,21.9063 71.7656,22.0156 71.9844,22.0156 C72.25,22.0156 72.5156,21.875 72.6875,21.6563 C72.7969,21.5 72.8281,21.3125 72.8281,20.8906 L72.8281,19.4688 C72.8281,19.0313 72.8125,18.9063 72.7188,18.75 C72.5625,18.4844 72.2813,18.3438 71.9844,18.3438 C71.6875,18.3438 71.4844,18.4375 71.2656,18.75 L71.0938,18.6719 Z " fill="#000000"/><text fill="#000000" font-family="sans-serif" font-size="12" lengthAdjust="spacing" textLength="102" x="89.25" y="27.1543">HTRAXTokenSale</text><line style="stroke:#A80036;stroke-width:1.5;" x1="10" x2="238" y1="39" y2="39"/><text fill="#000000" font-family="sans-serif" font-size="11" font-style="italic" lengthAdjust="spacing" textLength="80" x="29" y="53.2104">AccessControl</text><text fill="#000000" font-family="sans-serif" font-size="11" lengthAdjust="spacing" textLength="0" x="33" y="66.0151"/><text fill="#000000" font-family="sans-serif" font-size="11" lengthAdjust="spacing" textLength="0" x="33" y="78.8198"/><ellipse cx="20" cy="88.4141" rx="3" ry="3" style="stroke:#038048;stroke-width:1.0;fill:none;"/><a href="bytes32" target="_top" title="bytes32" xlink:actuate="onRequest" xlink:href="bytes32" xlink:show="new" xlink:title="bytes32" xlink:type="simple"><text fill="#0000FF" font-family="sans-serif" font-size="11" lengthAdjust="spacing" text-decoration="underline" textLength="46" x="29" y="91.6245">bytes32</text></a><text fill="#000000" font-family="sans-serif" font-size="11" lengthAdjust="spacing" text-decoration="underline" textLength="154" x="79" y="91.6245">PRESALES_MANAGER_ROLE</text><polygon fill="none" points="20,96.2188,24,100.2188,20,104.2188,16,100.2188" style="stroke:#B38D22;stroke-width:1.0;"/><a href="uint128" target="_top" title="uint128" xlink:actuate="onRequest" xlink:href="uint128" xlink:show="new" xlink:title="uint128" xlink:type="simple"><text fill="#0000FF" font-family="sans-serif" font-size="11" lengthAdjust="spacing" text-decoration="underline" textLength="42" x="29" y="104.4292">uint128</text></a><text fill="#000000" font-family="sans-serif" font-size="11" lengthAdjust="spacing" textLength="79" x="75" y="104.4292">saleStartDate</text><polygon fill="none" points="20,109.0234,24,113.0234,20,117.0234,16,113.0234" style="stroke:#B38D22;stroke-width:1.0;"/><a href="uint128" target="_top" title="uint128" xlink:actuate="onRequest" xlink:href="uint128" xlink:show="new" xlink:title="uint128" xlink:type="simple"><text fill="#0000FF" font-family="sans-serif" font-size="11" lengthAdjust="spacing" text-decoration="underline" textLength="42" x="29" y="117.2339">uint128</text></a><text fill="#000000" font-family="sans-serif" font-size="11" lengthAdjust="spacing" textLength="73" x="75" y="117.2339">saleEndDate</text><polygon fill="none" points="20,121.8281,24,125.8281,20,129.8281,16,125.8281" style="stroke:#B38D22;stroke-width:1.0;"/><a href="uint256" target="_top" title="uint256" xlink:actuate="onRequest" xlink:href="uint256" xlink:show="new" xlink:title="uint256" xlink:type="simple"><text fill="#0000FF" font-family="sans-serif" font-size="11" lengthAdjust="spacing" text-decoration="underline" textLength="42" x="29" y="130.0386">uint256</text></a><text fill="#000000" font-family="sans-serif" font-size="11" lengthAdjust="spacing" textLength="36" x="75" y="130.0386">level1</text><polygon fill="none" points="20,134.6328,24,138.6328,20,142.6328,16,138.6328" style="stroke:#B38D22;stroke-width:1.0;"/><a href="uint256" target="_top" title="uint256" xlink:actuate="onRequest" xlink:href="uint256" xlink:show="new" xlink:title="uint256" xlink:type="simple"><text fill="#0000FF" font-family="sans-serif" font-size="11" lengthAdjust="spacing" text-decoration="underline" textLength="42" x="29" y="142.8433">uint256</text></a><text fill="#000000" font-family="sans-serif" font-size="11" lengthAdjust="spacing" textLength="36" x="75" y="142.8433">level2</text><polygon fill="none" points="20,147.4375,24,151.4375,20,155.4375,16,151.4375" style="stroke:#B38D22;stroke-width:1.0;"/><a href="uint256" target="_top" title="uint256" xlink:actuate="onRequest" xlink:href="uint256" xlink:show="new" xlink:title="uint256" xlink:type="simple"><text fill="#0000FF" font-family="sans-serif" font-size="11" lengthAdjust="spacing" text-decoration="underline" textLength="42" x="29" y="155.6479">uint256</text></a><text fill="#000000" font-family="sans-serif" font-size="11" lengthAdjust="spacing" textLength="36" x="75" y="155.6479">level3</text><polygon fill="none" points="20,160.2422,24,164.2422,20,168.2422,16,164.2422" style="stroke:#B38D22;stroke-width:1.0;"/><a href="mapping" target="_top" title="mapping" xlink:actuate="onRequest" xlink:href="mapping" xlink:show="new" xlink:title="mapping" xlink:type="simple"><text fill="#0000FF" font-family="sans-serif" font-size="11" lengthAdjust="spacing" text-decoration="underline" textLength="83" x="29" y="168.4526">address=&gt;null</text></a><text fill="#000000" font-family="sans-serif" font-size="11" lengthAdjust="spacing" textLength="57" x="120" y="168.4526">timeLocks</text><line style="stroke:#A80036;stroke-width:1.5;" x1="10" x2="238" y1="175.0469" y2="175.0469"/><ellipse cx="20" cy="186.0469" fill="#84BE84" rx="3" ry="3" style="stroke:#038048;stroke-width:1.0;"/><text fill="#000000" font-family="sans-serif" font-size="11" lengthAdjust="spacing" textLength="163" x="29" y="189.2573">&#128269;getLockedBalanceLength()</text><ellipse cx="20" cy="198.8516" fill="#84BE84" rx="3" ry="3" style="stroke:#038048;stroke-width:1.0;"/><text fill="#000000" font-family="sans-serif" font-size="11" lengthAdjust="spacing" textLength="152" x="29" y="202.062">&#128269;getTotalLockedBalance()</text><ellipse cx="20" cy="211.6563" fill="#84BE84" rx="3" ry="3" style="stroke:#038048;stroke-width:1.0;"/><text fill="#000000" font-family="sans-serif" font-size="11" lengthAdjust="spacing" textLength="107" x="29" y="214.8667">setSaleStartDate()</text><ellipse cx="20" cy="224.4609" fill="#84BE84" rx="3" ry="3" style="stroke:#038048;stroke-width:1.0;"/><text fill="#000000" font-family="sans-serif" font-size="11" lengthAdjust="spacing" textLength="119" x="29" y="227.6714">&#128269;getSaleStartDate()</text><ellipse cx="20" cy="237.2656" fill="#84BE84" rx="3" ry="3" style="stroke:#038048;stroke-width:1.0;"/><text fill="#000000" font-family="sans-serif" font-size="11" lengthAdjust="spacing" textLength="101" x="29" y="240.4761">setSaleEndDate()</text><ellipse cx="20" cy="250.0703" fill="#84BE84" rx="3" ry="3" style="stroke:#038048;stroke-width:1.0;"/><text fill="#000000" font-family="sans-serif" font-size="11" lengthAdjust="spacing" textLength="113" x="29" y="253.2808">&#128269;getSaleEndDate()</text><ellipse cx="20" cy="262.875" fill="#84BE84" rx="3" ry="3" style="stroke:#038048;stroke-width:1.0;"/><text fill="#000000" font-family="sans-serif" font-size="11" lengthAdjust="spacing" textLength="98" x="29" y="266.0854">setLevel1Value()</text><ellipse cx="20" cy="275.6797" fill="#84BE84" rx="3" ry="3" style="stroke:#038048;stroke-width:1.0;"/><text fill="#000000" font-family="sans-serif" font-size="11" lengthAdjust="spacing" textLength="98" x="29" y="278.8901">setLevel2Value()</text><ellipse cx="20" cy="288.4844" fill="#84BE84" rx="3" ry="3" style="stroke:#038048;stroke-width:1.0;"/><text fill="#000000" font-family="sans-serif" font-size="11" lengthAdjust="spacing" textLength="98" x="29" y="291.6948">setLevel3Value()</text><ellipse cx="20" cy="301.2891" fill="#84BE84" rx="3" ry="3" style="stroke:#038048;stroke-width:1.0;"/><text fill="#000000" font-family="sans-serif" font-size="11" lengthAdjust="spacing" textLength="110" x="29" y="304.4995">&#128269;getLevel1Value()</text><ellipse cx="20" cy="314.0938" fill="#84BE84" rx="3" ry="3" style="stroke:#038048;stroke-width:1.0;"/><text fill="#000000" font-family="sans-serif" font-size="11" lengthAdjust="spacing" textLength="110" x="29" y="317.3042">&#128269;getLevel2Value()</text><ellipse cx="20" cy="326.8984" fill="#84BE84" rx="3" ry="3" style="stroke:#038048;stroke-width:1.0;"/><text fill="#000000" font-family="sans-serif" font-size="11" lengthAdjust="spacing" textLength="110" x="29" y="330.1089">&#128269;getLevel3Value()</text><ellipse cx="20" cy="339.7031" fill="#84BE84" rx="3" ry="3" style="stroke:#038048;stroke-width:1.0;"/><text fill="#000000" font-family="sans-serif" font-size="11" lengthAdjust="spacing" textLength="133" x="29" y="342.9136">releaseLockedTokens()</text><ellipse cx="20" cy="352.5078" fill="#84BE84" rx="3" ry="3" style="stroke:#038048;stroke-width:1.0;"/><text fill="#000000" font-family="sans-serif" font-size="11" lengthAdjust="spacing" textLength="127" x="29" y="355.7183">&#128269;getDiscountDetails()</text><polygon fill="#FFFF44" points="20,360.3125,24,364.3125,20,368.3125,16,364.3125" style="stroke:#B38D22;stroke-width:1.0;"/><text fill="#000000" font-family="sans-serif" font-size="11" lengthAdjust="spacing" textLength="178" x="29" y="368.5229">addDiscountTokenLockDetails()</text><!--MD5=[ee60552bc4698d86a6bc3ed4a603a080]
class AccessControl--><rect fill="#FEFECE" filter="url(#f1f6j7gva3ihzj)" height="48" id="AccessControl" style="stroke:#A80036;stroke-width:1.5;" width="119" x="64.5" y="435"/><ellipse cx="79.5" cy="451" fill="#ADD1B2" rx="11" ry="11" style="stroke:#A80036;stroke-width:1.0;"/><path d="M81.8438,446.6719 C80.9063,446.2344 80.3125,446.0938 79.4375,446.0938 C76.8125,446.0938 74.8125,448.1719 74.8125,450.8906 L74.8125,452.0156 C74.8125,454.5938 76.9219,456.4844 79.8125,456.4844 C81.0313,456.4844 82.1875,456.1875 82.9375,455.6406 C83.5156,455.2344 83.8438,454.7813 83.8438,454.3906 C83.8438,453.9375 83.4531,453.5469 82.9844,453.5469 C82.7656,453.5469 82.5625,453.625 82.375,453.8125 C81.9219,454.2969 81.9219,454.2969 81.7344,454.3906 C81.3125,454.6563 80.625,454.7813 79.8594,454.7813 C77.8125,454.7813 76.5156,453.6875 76.5156,451.9844 L76.5156,450.8906 C76.5156,449.1094 77.7656,447.7969 79.5,447.7969 C80.0781,447.7969 80.6875,447.9531 81.1563,448.2031 C81.6406,448.4844 81.8125,448.7031 81.9063,449.1094 C81.9688,449.5156 82,449.6406 82.1406,449.7656 C82.2813,449.9063 82.5156,450.0156 82.7344,450.0156 C83,450.0156 83.2656,449.875 83.4375,449.6563 C83.5469,449.5 83.5781,449.3125 83.5781,448.8906 L83.5781,447.4688 C83.5781,447.0313 83.5625,446.9063 83.4688,446.75 C83.3125,446.4844 83.0313,446.3438 82.7344,446.3438 C82.4375,446.3438 82.2344,446.4375 82.0156,446.75 L81.8438,446.6719 Z " fill="#000000"/><text fill="#000000" font-family="sans-serif" font-size="12" lengthAdjust="spacing" textLength="87" x="93.5" y="455.1543">AccessControl</text><line style="stroke:#A80036;stroke-width:1.5;" x1="65.5" x2="182.5" y1="467" y2="467"/><line style="stroke:#A80036;stroke-width:1.5;" x1="65.5" x2="182.5" y1="475" y2="475"/><!--MD5=[09dcb68e5bcac41b187471a2595b1bf1]
link HTRAXTokenSale to AccessControl--><path codeLine="45" d="M124,375.294 C124,389.6615 124,403.1107 124,414.8173 " fill="none" id="HTRAXTokenSale-to-AccessControl" style="stroke:#B8860B;stroke-width:1.0;"/><polygon fill="none" points="131,414.9645,124,434.9645,117,414.9644,131,414.9645" style="stroke:#B8860B;stroke-width:1.0;"/><!--MD5=[6ad40e6322d9b214dc2e4556b770f3f2]
@startuml
' - - generated by: https://marketplace.visualstudio.com/items?itemName=tintinweb.solidity-visual-auditor
'
' - - for auto-render install: https://marketplace.visualstudio.com/items?itemName=jebbs.plantuml
' - - options - -

allowmixing

' - - classes - -


class HTRAXTokenSale {
    ' - - inheritance - -
	{abstract}AccessControl

    ' - - usingFor - -

    ' - - vars - -
	+{static}[[bytes32]] PRESALES_MANAGER_ROLE
	#[[uint128]] saleStartDate
	#[[uint128]] saleEndDate
	#[[uint256]] level1
	#[[uint256]] level2
	#[[uint256]] level3
	#[[mapping address=>null ]] timeLocks

    ' - - methods - -
	+ðŸ”getLockedBalanceLength()
	+ðŸ”getTotalLockedBalance()
	+setSaleStartDate()
	+ðŸ”getSaleStartDate()
	+setSaleEndDate()
	+ðŸ”getSaleEndDate()
	+setLevel1Value()
	+setLevel2Value()
	+setLevel3Value()
	+ðŸ”getLevel1Value()
	+ðŸ”getLevel2Value()
	+ðŸ”getLevel3Value()
	+releaseLockedTokens()
	+ðŸ”getDiscountDetails()
	#addDiscountTokenLockDetails()

}
' - - inheritance / usingFor - -
HTRAXTokenSale - -[#DarkGoldenRod]|> AccessControl

' - - actors - -
@enduml

@startuml

allowmixing



class HTRAXTokenSale {
	{abstract}AccessControl


	+{static}[[bytes32]] PRESALES_MANAGER_ROLE
	#[[uint128]] saleStartDate
	#[[uint128]] saleEndDate
	#[[uint256]] level1
	#[[uint256]] level2
	#[[uint256]] level3
	#[[mapping address=>null ]] timeLocks

	+ðŸ”getLockedBalanceLength()
	+ðŸ”getTotalLockedBalance()
	+setSaleStartDate()
	+ðŸ”getSaleStartDate()
	+setSaleEndDate()
	+ðŸ”getSaleEndDate()
	+setLevel1Value()
	+setLevel2Value()
	+setLevel3Value()
	+ðŸ”getLevel1Value()
	+ðŸ”getLevel2Value()
	+ðŸ”getLevel3Value()
	+releaseLockedTokens()
	+ðŸ”getDiscountDetails()
	#addDiscountTokenLockDetails()

}
HTRAXTokenSale - -[#DarkGoldenRod]|> AccessControl

@enduml

PlantUML version 1.2021.13beta5(Unknown compile time)
(GPL source distribution)
Java Runtime: Java(TM) SE Runtime Environment
JVM: Java HotSpot(TM) 64-Bit Server VM
Default Encoding: UTF-8
Language: en
Country: US
--></g></svg>